<svg width="16" height="17" viewBox="0 0 16 17" fill="none" xmlns="http://www.w3.org/2000/svg">
<path d="M6.4 2.90244H9.6C9.6 2.46257 9.43143 2.04071 9.13137 1.72968C8.83131 1.41864 8.42435 1.2439 8 1.2439C7.57565 1.2439 7.16869 1.41864 6.86863 1.72968C6.56857 2.04071 6.4 2.46257 6.4 2.90244ZM5.2 2.90244C5.2 2.52129 5.27242 2.14386 5.41314 1.79172C5.55385 1.43958 5.7601 1.11962 6.0201 0.850105C6.28011 0.580588 6.58878 0.366796 6.92849 0.220935C7.2682 0.0750738 7.6323 0 8 0C8.3677 0 8.7318 0.0750738 9.07151 0.220935C9.41122 0.366796 9.7199 0.580588 9.9799 0.850105C10.2399 1.11962 10.4462 1.43958 10.5869 1.79172C10.7276 2.14386 10.8 2.52129 10.8 2.90244H15.4C15.5591 2.90244 15.7117 2.96797 15.8243 3.0846C15.9368 3.20124 16 3.35944 16 3.52439C16 3.68934 15.9368 3.84754 15.8243 3.96418C15.7117 4.08081 15.5591 4.14634 15.4 4.14634H14.344L13.408 14.1896C13.3362 14.9592 12.9904 15.6734 12.4381 16.193C11.8859 16.7126 11.1666 17.0003 10.4208 17H5.5792C4.83349 17.0001 4.11448 16.7123 3.56236 16.1927C3.01024 15.6731 2.66459 14.959 2.5928 14.1896L1.656 4.14634H0.6C0.44087 4.14634 0.288258 4.08081 0.175736 3.96418C0.063214 3.84754 0 3.68934 0 3.52439C0 3.35944 0.063214 3.20124 0.175736 3.0846C0.288258 2.96797 0.44087 2.90244 0.6 2.90244H5.2ZM6.8 6.84146C6.8 6.67651 6.73679 6.51832 6.62426 6.40168C6.51174 6.28504 6.35913 6.21951 6.2 6.21951C6.04087 6.21951 5.88826 6.28504 5.77574 6.40168C5.66321 6.51832 5.6 6.67651 5.6 6.84146V13.061C5.6 13.2259 5.66321 13.3841 5.77574 13.5008C5.88826 13.6174 6.04087 13.6829 6.2 13.6829C6.35913 13.6829 6.51174 13.6174 6.62426 13.5008C6.73679 13.3841 6.8 13.2259 6.8 13.061V6.84146ZM9.8 6.21951C9.64087 6.21951 9.48826 6.28504 9.37574 6.40168C9.26321 6.51832 9.2 6.67651 9.2 6.84146V13.061C9.2 13.2259 9.26321 13.3841 9.37574 13.5008C9.48826 13.6174 9.64087 13.6829 9.8 13.6829C9.95913 13.6829 10.1117 13.6174 10.2243 13.5008C10.3368 13.3841 10.4 13.2259 10.4 13.061V6.84146C10.4 6.67651 10.3368 6.51832 10.2243 6.40168C10.1117 6.28504 9.95913 6.21951 9.8 6.21951Z" fill="#436280"/>
</svg>
