<svg width="24" height="24" viewBox="0 0 24 24" fill="none" xmlns="http://www.w3.org/2000/svg">
<path d="M14.2875 3.795C14.2875 2.535 13.26 1.5 11.9925 1.5C10.725 1.5 9.69 2.535 9.6975 3.795V9.6975H3.795C2.535 9.6975 1.5 10.725 1.5 11.9925C1.5 13.2525 2.535 14.2875 3.795 14.2875H9.6975V20.1825C9.6975 21.4425 10.725 22.4775 11.9925 22.4775C13.2525 22.4775 14.2875 21.45 14.2875 20.1825V14.2875H20.1825C21.4425 14.2875 22.4775 13.26 22.4775 11.9925C22.4775 10.7325 21.45 9.6975 20.1825 9.6975H14.2875V3.795Z" fill="#436280"/>
</svg>
