<svg width="19" height="18" viewBox="0 0 19 18" fill="none" xmlns="http://www.w3.org/2000/svg">
<path d="M13.6159 2.04088C11.5462 3.10759 9.30864 3.81082 7.00086 4.11988C6.10311 4.24273 5.18436 4.30363 4.24986 4.30363C3.18057 4.30175 2.15082 4.70779 1.37058 5.43896C0.590338 6.17013 0.118354 7.17136 0.0508613 8.23852C-0.0166312 9.30568 0.32545 10.3584 1.00736 11.182C1.68927 12.0057 2.65965 12.5382 3.72066 12.6711C4.03286 13.8867 4.48051 15.0634 5.05521 16.1791C5.47206 16.9876 6.46431 17.2291 7.20771 16.7986L8.11806 16.2736C8.88036 15.8326 9.10506 14.8866 8.73546 14.1516C8.56273 13.8075 8.40576 13.4557 8.26506 13.0974C10.1551 13.4733 11.9516 14.1096 13.6159 14.9664C14.3685 12.8949 14.7523 10.7076 14.7499 8.50363C14.7499 6.23458 14.3498 4.05793 13.6159 2.04088ZM15.005 1.25548C15.8806 3.57158 16.3278 6.02756 16.3249 8.50363C16.3276 10.98 15.8804 13.4363 15.005 15.7528L14.9735 15.8337C14.9365 15.9303 14.9188 16.0332 14.9216 16.1366C14.9244 16.24 14.9475 16.3419 14.9896 16.4363C15.0747 16.6272 15.232 16.7764 15.4271 16.8511C15.6222 16.9259 15.839 16.9201 16.0298 16.835C16.1243 16.7929 16.2095 16.7326 16.2807 16.6575C16.3518 16.5825 16.4075 16.4941 16.4446 16.3975C17.1863 14.4619 17.6501 12.431 17.8222 10.3653C18.1624 10.1879 18.4475 9.92055 18.6465 9.59242C18.8454 9.26429 18.9506 8.88789 18.9506 8.50415C18.9506 8.12042 18.8454 7.74402 18.6465 7.41589C18.4475 7.08776 18.1624 6.82045 17.8222 6.64303C17.6501 4.57731 17.1863 2.54638 16.4446 0.610779C16.3659 0.42125 16.2165 0.269889 16.0279 0.188915C15.8394 0.107941 15.6267 0.10375 15.4351 0.177234C15.2435 0.250717 15.0882 0.396071 15.0022 0.582356C14.9162 0.768641 14.9063 0.981143 14.9746 1.17463L15.005 1.25548Z" fill="white"/>
</svg>
