<svg width="20" height="15" viewBox="0 0 20 15" fill="none" xmlns="http://www.w3.org/2000/svg">
<path d="M10 12C9.10998 12 8.23995 11.7361 7.49993 11.2416C6.75991 10.7471 6.18314 10.0443 5.84254 9.22208C5.50195 8.39981 5.41283 7.49501 5.58647 6.62209C5.7601 5.74918 6.18868 4.94736 6.81802 4.31802C7.44736 3.68868 8.24918 3.2601 9.12209 3.08647C9.99501 2.91283 10.8998 3.00195 11.7221 3.34254C12.5443 3.68314 13.2471 4.25991 13.7416 4.99993C14.2361 5.73995 14.5 6.60998 14.5 7.5C14.5 8.69347 14.0259 9.83807 13.182 10.682C12.3381 11.5259 11.1935 12 10 12ZM10 0.5C3 0.5 0 7.5 0 7.5C0 7.5 3 14.5 10 14.5C17 14.5 20 7.5 20 7.5C20 7.5 17 0.5 10 0.5Z" fill="#04030F"/>
</svg>
