<svg width="17" height="19" viewBox="0 0 17 19" fill="none" xmlns="http://www.w3.org/2000/svg">
<path d="M15.7188 3.9375H12.7656V2.95312C12.7635 2.34462 12.5208 1.76166 12.0905 1.33138C11.6602 0.901097 11.0773 0.658412 10.4688 0.65625H6.53125C5.92275 0.658412 5.33978 0.901097 4.9095 1.33138C4.47922 1.76166 4.23654 2.34462 4.23438 2.95312V3.9375H1.28125C1.02018 3.9375 0.769798 4.04121 0.585192 4.22582C0.400586 4.41042 0.296875 4.6608 0.296875 4.92188C0.296875 5.18295 0.400586 5.43333 0.585192 5.61793C0.769798 5.80254 1.02018 5.90625 1.28125 5.90625H1.60938V17.0625C1.61153 17.497 1.78507 17.913 2.09229 18.2202C2.3995 18.5274 2.81554 18.701 3.25 18.7031H13.75C14.1845 18.701 14.6005 18.5274 14.9077 18.2202C15.2149 17.913 15.3885 17.497 15.3906 17.0625V5.90625H15.7188C15.9798 5.90625 16.2302 5.80254 16.4148 5.61793C16.5994 5.43333 16.7031 5.18295 16.7031 4.92188C16.7031 4.6608 16.5994 4.41042 16.4148 4.22582C16.2302 4.04121 15.9798 3.9375 15.7188 3.9375ZM6.20312 2.95312C6.20312 2.8661 6.23769 2.78264 6.29923 2.72111C6.36077 2.65957 6.44423 2.625 6.53125 2.625H10.4688C10.5558 2.625 10.6392 2.65957 10.7008 2.72111C10.7623 2.78264 10.7969 2.8661 10.7969 2.95312V3.9375H6.20312V2.95312ZM13.4219 16.7344H3.57812V5.90625H13.4219V16.7344ZM7.51562 8.53125V13.7812C7.51562 14.0423 7.41191 14.2927 7.22731 14.4773C7.0427 14.6619 6.79232 14.7656 6.53125 14.7656C6.27018 14.7656 6.0198 14.6619 5.83519 14.4773C5.65059 14.2927 5.54688 14.0423 5.54688 13.7812V8.53125C5.54688 8.27018 5.65059 8.0198 5.83519 7.83519C6.0198 7.65059 6.27018 7.54688 6.53125 7.54688C6.79232 7.54688 7.0427 7.65059 7.22731 7.83519C7.41191 8.0198 7.51562 8.27018 7.51562 8.53125ZM11.4531 8.53125V13.7812C11.4531 14.0423 11.3494 14.2927 11.1648 14.4773C10.9802 14.6619 10.7298 14.7656 10.4688 14.7656C10.2077 14.7656 9.9573 14.6619 9.77269 14.4773C9.58809 14.2927 9.48438 14.0423 9.48438 13.7812V8.53125C9.48438 8.27018 9.58809 8.0198 9.77269 7.83519C9.9573 7.65059 10.2077 7.54688 10.4688 7.54688C10.7298 7.54688 10.9802 7.65059 11.1648 7.83519C11.3494 8.0198 11.4531 8.27018 11.4531 8.53125Z" fill="#04030F"/>
</svg>
