<svg width="18" height="17" viewBox="0 0 18 17" fill="none" xmlns="http://www.w3.org/2000/svg">
<path d="M17.4156 14.708L14.2281 11.7285C15.2566 10.5002 15.8146 8.98339 15.8125 7.42188C15.8125 6.03123 15.3726 4.67181 14.5485 3.51553C13.7244 2.35924 12.5531 1.45803 11.1826 0.92585C9.81218 0.393672 8.30418 0.254429 6.84933 0.525732C5.39447 0.797034 4.0581 1.4667 3.0092 2.45003C1.96031 3.43337 1.246 4.68622 0.956614 6.05015C0.667225 7.41408 0.81575 8.82783 1.38341 10.1126C1.95106 11.3974 2.91236 12.4955 4.14573 13.2681C5.3791 14.0408 6.82914 14.4531 8.3125 14.4531C9.97812 14.4551 11.5961 13.9319 12.9063 12.9678L16.0844 15.9561C16.1715 16.0384 16.2752 16.1038 16.3895 16.1484C16.5037 16.1931 16.6262 16.216 16.75 16.216C16.8738 16.216 16.9963 16.1931 17.1105 16.1484C17.2248 16.1038 17.3285 16.0384 17.4156 15.9561C17.5035 15.8744 17.5732 15.7771 17.6208 15.67C17.6684 15.5629 17.6929 15.4481 17.6929 15.332C17.6929 15.216 17.6684 15.1011 17.6208 14.994C17.5732 14.8869 17.5035 14.7897 17.4156 14.708ZM2.6875 7.42188C2.6875 6.37889 3.0174 5.35933 3.63549 4.49211C4.25357 3.6249 5.13207 2.94899 6.15991 2.54986C7.18774 2.15072 8.31874 2.04629 9.40989 2.24977C10.501 2.45325 11.5033 2.95549 12.29 3.693C13.0766 4.4305 13.6124 5.37014 13.8294 6.39308C14.0465 7.41603 13.9351 8.47634 13.5093 9.43994C13.0836 10.4035 12.3626 11.2271 11.4376 11.8066C10.5126 12.386 9.42502 12.6953 8.3125 12.6953C6.82066 12.6953 5.38992 12.1397 4.33503 11.1508C3.28014 10.1618 2.6875 8.82048 2.6875 7.42188Z" fill="#808080"/>
</svg>
