<svg width="14" height="10" viewBox="0 0 14 10" fill="none" xmlns="http://www.w3.org/2000/svg">
<path d="M3.87162 0.453125C3.93315 0.453125 3.99468 0.467085 4.0507 0.495067C4.08599 0.512629 4.1191 0.535742 4.14866 0.564406L6.88564 3.21872C7.03835 3.36679 7.03835 3.60685 6.88564 3.75493C6.73294 3.90299 6.48538 3.90299 6.33269 3.75493L4.26131 1.74626V9.1736C4.26131 9.38297 4.08625 9.55276 3.87032 9.55276C3.65438 9.55276 3.47933 9.38297 3.47933 9.1736V1.74968L1.41148 3.75491C1.25879 3.90298 1.01123 3.90298 0.858536 3.75491C0.705846 3.60684 0.705846 3.36677 0.858536 3.21871L3.5707 0.588664C3.62808 0.522376 3.70842 0.475404 3.79985 0.459267L3.87162 0.453125ZM10.1297 0.453125C10.3457 0.453125 10.5207 0.622879 10.5207 0.832276V8.25621L12.5885 6.25096C12.7413 6.10293 12.9887 6.10293 13.1415 6.25096C13.2942 6.39905 13.2942 6.63913 13.1415 6.78715L10.4293 9.41725C10.3719 9.48349 10.2915 9.53047 10.2001 9.54661L10.1283 9.55276C10.0669 9.55276 10.0053 9.5388 9.94927 9.51082L9.89818 9.48032L9.84355 9.4337L7.11436 6.78715C6.96168 6.63913 6.96168 6.39905 7.11436 6.25096C7.26708 6.10286 7.51466 6.10286 7.6673 6.25096L9.73868 8.25962V0.832276C9.73868 0.622879 9.91377 0.453125 10.1297 0.453125Z" fill="#D9D9D9"/>
</svg>
