<svg width="21" height="20" viewBox="0 0 21 20" fill="none" xmlns="http://www.w3.org/2000/svg">
<path d="M8.73705 11.8L6.52739 9.625C6.34114 9.44167 6.11255 9.35 5.84163 9.35C5.57072 9.35 5.33367 9.45 5.13048 9.65C4.94422 9.83333 4.8511 10.0667 4.8511 10.35C4.8511 10.6333 4.94422 10.8667 5.13048 11.05L8.0259 13.9C8.21215 14.0833 8.4492 14.175 8.73705 14.175C9.0249 14.175 9.26195 14.0833 9.44821 13.9L15.2136 8.225C15.3999 8.04167 15.493 7.81667 15.493 7.55C15.493 7.28333 15.3914 7.05 15.1882 6.85C15.002 6.66667 14.7649 6.575 14.4771 6.575C14.1892 6.575 13.9522 6.66667 13.7659 6.85L8.73705 11.8ZM10.1594 20C8.75398 20 7.43327 19.7373 6.19721 19.212C4.96116 18.6873 3.88596 17.975 2.97161 17.075C2.05727 16.175 1.33359 15.1167 0.800558 13.9C0.266853 12.6833 0 11.3833 0 10C0 8.61667 0.266853 7.31667 0.800558 6.1C1.33359 4.88333 2.05727 3.825 2.97161 2.925C3.88596 2.025 4.96116 1.31233 6.19721 0.787C7.43327 0.262333 8.75398 0 10.1594 0C11.5647 0 12.8855 0.262333 14.1215 0.787C15.3576 1.31233 16.4328 2.025 17.3471 2.925C18.2615 3.825 18.9851 4.88333 19.5182 6.1C20.0519 7.31667 20.3187 8.61667 20.3187 10C20.3187 11.3833 20.0519 12.6833 19.5182 13.9C18.9851 15.1167 18.2615 16.175 17.3471 17.075C16.4328 17.975 15.3576 18.6873 14.1215 19.212C12.8855 19.7373 11.5647 20 10.1594 20Z" fill="#F8F8F8"/>
</svg>
