<svg width="54" height="54" viewBox="0 0 54 54" fill="none" xmlns="http://www.w3.org/2000/svg">
<path d="M6.58333 24.375L12.4167 18.5417L28.4583 34.5833L38.6667 24.375L47.4167 33.125V6.58333H6.58333V24.375ZM3.66667 0.75H50.3333C51.1069 0.75 51.8488 1.05729 52.3957 1.60427C52.9427 2.15125 53.25 2.89312 53.25 3.66667V50.3333C53.25 51.1069 52.9427 51.8488 52.3957 52.3957C51.8488 52.9427 51.1069 53.25 50.3333 53.25H3.66667C2.89312 53.25 2.15125 52.9427 1.60427 52.3957C1.05729 51.8488 0.75 51.1069 0.75 50.3333V3.66667C0.75 2.89312 1.05729 2.15125 1.60427 1.60427C2.15125 1.05729 2.89312 0.75 3.66667 0.75ZM37.2083 21.1667C36.048 21.1667 34.9352 20.7057 34.1147 19.8853C33.2943 19.0648 32.8333 17.952 32.8333 16.7917C32.8333 15.6313 33.2943 14.5185 34.1147 13.6981C34.9352 12.8776 36.048 12.4167 37.2083 12.4167C38.3687 12.4167 39.4815 12.8776 40.3019 13.6981C41.1224 14.5185 41.5833 15.6313 41.5833 16.7917C41.5833 17.952 41.1224 19.0648 40.3019 19.8853C39.4815 20.7057 38.3687 21.1667 37.2083 21.1667Z" fill="#0F212F"/>
</svg>
