<svg width="19" height="18" viewBox="0 0 19 18" fill="none" xmlns="http://www.w3.org/2000/svg">
<path d="M11.6402 9.00142L17.4566 3.18788C18.1868 2.45764 18.1868 1.27933 17.4566 0.549096C16.7263 -0.181141 15.548 -0.181141 14.8178 0.549096L9.00142 6.36264L3.18646 0.547678C2.45622 -0.182559 1.27792 -0.182559 0.547678 0.547678C-0.182559 1.27792 -0.182559 2.45622 0.547678 3.18646L6.36405 9L0.547678 14.8135C-0.182559 15.5438 -0.182559 16.7221 0.547678 17.4523C1.27933 18.1826 2.46189 18.1826 3.18646 17.4523L9.00284 11.6388L14.8192 17.4523C15.5494 18.1826 16.7278 18.1826 17.458 17.4523C18.1826 16.7221 18.1826 15.5438 17.4509 14.8121L11.6402 9.00142Z" fill="white"/>
</svg>
