<svg width="20" height="20" viewBox="0 0 20 20" fill="none" xmlns="http://www.w3.org/2000/svg">
<path d="M16.8269 15.6731L14.0644 12.9188C14.9557 11.7832 15.4393 10.381 15.4375 8.9375C15.4375 7.65192 15.0563 6.39522 14.3421 5.3263C13.6278 4.25738 12.6127 3.42426 11.4249 2.93229C10.2372 2.44032 8.93029 2.31159 7.66942 2.5624C6.40854 2.8132 5.25035 3.43227 4.34131 4.34131C3.43227 5.25035 2.8132 6.40854 2.5624 7.66942C2.31159 8.93029 2.44032 10.2372 2.93229 11.4249C3.42426 12.6127 4.25738 13.6278 5.3263 14.3421C6.39522 15.0563 7.65192 15.4375 8.9375 15.4375C10.381 15.4393 11.7832 14.9557 12.9188 14.0644L15.6731 16.8269C15.7487 16.903 15.8385 16.9635 15.9375 17.0047C16.0365 17.046 16.1427 17.0672 16.25 17.0672C16.3573 17.0672 16.4635 17.046 16.5625 17.0047C16.6615 16.9635 16.7513 16.903 16.8269 16.8269C16.903 16.7513 16.9635 16.6615 17.0047 16.5625C17.046 16.4635 17.0672 16.3573 17.0672 16.25C17.0672 16.1427 17.046 16.0365 17.0047 15.9375C16.9635 15.8385 16.903 15.7487 16.8269 15.6731ZM4.0625 8.9375C4.0625 7.97332 4.34842 7.03079 4.88409 6.2291C5.41976 5.42741 6.18113 4.80257 7.07192 4.43359C7.96271 4.06461 8.94291 3.96807 9.88857 4.15617C10.8342 4.34428 11.7029 4.80858 12.3846 5.49036C13.0664 6.17214 13.5307 7.04078 13.7188 7.98644C13.9069 8.9321 13.8104 9.91229 13.4414 10.8031C13.0724 11.6939 12.4476 12.4552 11.6459 12.9909C10.8442 13.5266 9.90169 13.8125 8.9375 13.8125C7.64457 13.8125 6.4046 13.2989 5.49036 12.3846C4.57612 11.4704 4.0625 10.2304 4.0625 8.9375Z" fill="#808080"/>
</svg>
