<svg width="22" height="22" viewBox="0 0 22 22" fill="none" xmlns="http://www.w3.org/2000/svg">
<path fill-rule="evenodd" clip-rule="evenodd" d="M3.66667 2.44444C3.34251 2.44444 3.03164 2.57321 2.80242 2.80242C2.57321 3.03164 2.44444 3.34251 2.44444 3.66667V18.3333C2.44444 18.6575 2.57321 18.9684 2.80242 19.1976C3.03164 19.4268 3.34251 19.5556 3.66667 19.5556H9.77778C10.4528 19.5556 11 20.1028 11 20.7778C11 21.4528 10.4528 22 9.77778 22H3.66667C2.69421 22 1.76157 21.6137 1.07394 20.9261C0.386308 20.2384 0 19.3058 0 18.3333V3.66667C0 2.69421 0.386308 1.76158 1.07394 1.07394C1.76158 0.386308 2.69421 0 3.66667 0H9.77778C10.4528 0 11 0.547208 11 1.22222C11 1.89724 10.4528 2.44444 9.77778 2.44444H3.66667ZM15.0246 5.24687C15.502 4.76956 16.2758 4.76956 16.7531 5.24687L21.6412 10.1349C21.6439 10.1376 21.6466 10.1404 21.6494 10.1432C21.7628 10.2585 21.8487 10.3907 21.9071 10.5317C21.9669 10.6759 22 10.8341 22 11C22 11.3338 21.8662 11.6363 21.6494 11.8568C21.6466 11.8596 21.6439 11.8624 21.6412 11.8651L16.7531 16.7531C16.2758 17.2304 15.502 17.2304 15.0246 16.7531C14.5473 16.2758 14.5473 15.502 15.0246 15.0246L17.8271 12.2222H8.55555C7.88054 12.2222 7.33333 11.675 7.33333 11C7.33333 10.325 7.88054 9.77778 8.55555 9.77778H17.8271L15.0246 6.97535C14.5473 6.49804 14.5473 5.72418 15.0246 5.24687Z" fill="white"/>
</svg>
