<svg width="12" height="12" viewBox="0 0 12 12" fill="none" xmlns="http://www.w3.org/2000/svg">
<g id="&#240;&#159;&#166;&#134; icon &#34;close&#34;">
<path id="Vector" d="M6 0C4.4087 0 2.88258 0.632141 1.75736 1.75736C0.632141 2.88258 0 4.4087 0 6C0 7.5913 0.632141 9.11742 1.75736 10.2426C2.88258 11.3679 4.4087 12 6 12C7.5913 12 9.11742 11.3679 10.2426 10.2426C11.3679 9.11742 12 7.5913 12 6C12 4.4087 11.3679 2.88258 10.2426 1.75736C9.11742 0.632141 7.5913 0 6 0V0ZM8.652 7.59075L7.5915 8.65125L6 7.0605L4.40925 8.65125L3.34875 7.59075L4.9395 6L3.348 4.40925L4.4085 3.34875L6 4.9395L7.59075 3.34875L8.65125 4.40925L7.0605 6L8.652 7.59075Z" fill="#04030F"/>
</g>
</svg>
