<svg width="33" height="30" viewBox="0 0 33 30" fill="none" xmlns="http://www.w3.org/2000/svg">
<path d="M27.201 23.3793C27.1952 23.3752 27.1942 23.367 27.1989 23.3616C28.6213 21.7439 29.6107 19.8273 30.0836 17.7734C30.5575 15.7153 30.4989 13.5797 29.9128 11.5475C29.3267 9.51521 28.2303 7.64597 26.7163 6.09787C25.2023 4.54976 23.3152 3.36833 21.2148 2.65351C19.1144 1.93868 16.8623 1.71148 14.6491 1.99113C12.4358 2.27077 10.3266 3.04904 8.49969 4.2601C6.67279 5.47116 5.182 7.07939 4.1534 8.94875C3.12481 10.8181 2.58867 12.8936 2.59034 14.9998C2.59111 18.0577 3.73213 21.0178 5.81343 23.3622C5.81798 23.3673 5.81728 23.3752 5.81188 23.3794C5.8065 23.3836 5.80576 23.3915 5.81033 23.3966C5.87787 23.4718 5.95392 23.5372 6.02283 23.6114C6.11229 23.7086 6.20811 23.7989 6.30115 23.8934C6.57946 24.1778 6.86513 24.4514 7.1659 24.7091C7.25685 24.787 7.35118 24.8602 7.44422 24.9357C7.76229 25.1943 8.08871 25.4393 8.42825 25.6681C8.47045 25.6963 8.50803 25.7304 8.55014 25.7591C8.55225 25.7606 8.55509 25.759 8.55509 25.7565C8.55509 25.7539 8.55792 25.7524 8.56004 25.7538C10.887 27.2969 13.6623 28.1249 16.5069 28.1249C19.3515 28.1249 22.1268 27.2968 24.4538 25.7538C24.4559 25.7524 24.4587 25.7539 24.4587 25.7564C24.4587 25.7589 24.4615 25.7604 24.4636 25.759C24.5057 25.7303 24.5433 25.6961 24.5855 25.6679C24.9247 25.4391 25.2515 25.1941 25.5696 24.9355C25.6626 24.8605 25.7569 24.7868 25.8479 24.7089C26.1486 24.4512 26.4343 24.1775 26.7126 23.8933C26.8054 23.7989 26.9009 23.7084 26.991 23.6113C27.0594 23.5372 27.1355 23.4719 27.203 23.3969C27.2077 23.3916 27.2068 23.3834 27.201 23.3793ZM16.506 7.49976C17.3907 7.49976 18.2554 7.74718 18.991 8.21074C19.7266 8.67431 20.2999 9.33319 20.6384 10.1041C20.977 10.8749 21.0655 11.7232 20.8929 12.5415C20.7204 13.3599 20.2944 14.1116 19.6688 14.7016C19.0433 15.2916 18.2463 15.6934 17.3786 15.8562C16.511 16.019 15.6116 15.9354 14.7943 15.6161C13.977 15.2968 13.2784 14.7561 12.7869 14.0623C12.2954 13.3685 12.0331 12.5529 12.0331 11.7185C12.0331 10.5996 12.5044 9.52657 13.3432 8.7354C14.182 7.94423 15.3197 7.49976 16.506 7.49976ZM10.088 24.4718C9.06787 23.8533 8.47649 22.6308 8.98027 21.5493C9.2302 21.0128 9.58699 20.5202 10.0375 20.1006C10.9663 19.2356 12.2188 18.7503 13.5241 18.7498H19.4879C20.7932 18.7504 22.0457 19.2356 22.9744 20.1006C23.425 20.5202 23.7817 21.0127 24.0317 21.5492C24.5355 22.6307 23.9441 23.8533 22.9239 24.4719C21.0208 25.6258 18.7951 26.2497 16.506 26.2497C14.2169 26.2497 11.9911 25.6258 10.088 24.4718Z" fill="white"/>
</svg>
