<svg width="20" height="20" viewBox="0 0 20 20" fill="none" xmlns="http://www.w3.org/2000/svg">
<path d="M0 0H20V20H0V0Z" fill="white" fill-opacity="0.01"/>
<path fill-rule="evenodd" clip-rule="evenodd" d="M13.9585 4.16146C13.9585 3.70122 14.3316 3.32812 14.7918 3.32812H17.2918C17.7521 3.32812 18.1252 3.70122 18.1252 4.16146C18.1252 4.6217 17.7521 4.99479 17.2918 4.99479H14.7918C14.3316 4.99479 13.9585 4.6217 13.9585 4.16146Z" fill="white"/>
<path fill-rule="evenodd" clip-rule="evenodd" d="M11.4583 1.66406C11.9186 1.66406 12.2917 2.03716 12.2917 2.4974V5.83073C12.2917 6.29097 11.9186 6.66406 11.4583 6.66406C10.9981 6.66406 10.625 6.29097 10.625 5.83073V2.4974C10.625 2.03716 10.9981 1.66406 11.4583 1.66406Z" fill="white"/>
<path fill-rule="evenodd" clip-rule="evenodd" d="M1.4585 4.16146C1.4585 3.70122 1.83159 3.32812 2.29183 3.32812H11.4585C11.9187 3.32812 12.2918 3.70122 12.2918 4.16146C12.2918 4.6217 11.9187 4.99479 11.4585 4.99479H2.29183C1.83159 4.99479 1.4585 4.6217 1.4585 4.16146Z" fill="white"/>
<path fill-rule="evenodd" clip-rule="evenodd" d="M1.4585 9.9974C1.4585 9.53716 1.83159 9.16406 2.29183 9.16406H5.62516C6.0854 9.16406 6.4585 9.53716 6.4585 9.9974C6.4585 10.4576 6.0854 10.8307 5.62516 10.8307H2.29183C1.83159 10.8307 1.4585 10.4576 1.4585 9.9974Z" fill="white"/>
<path fill-rule="evenodd" clip-rule="evenodd" d="M8.95833 7.5C9.41857 7.5 9.79167 7.8731 9.79167 8.33333V11.6667C9.79167 12.1269 9.41857 12.5 8.95833 12.5C8.4981 12.5 8.125 12.1269 8.125 11.6667V8.33333C8.125 7.8731 8.4981 7.5 8.95833 7.5Z" fill="white"/>
<path fill-rule="evenodd" clip-rule="evenodd" d="M8.125 9.9974C8.125 9.53716 8.4981 9.16406 8.95833 9.16406H18.125C18.5852 9.16406 18.9583 9.53716 18.9583 9.9974C18.9583 10.4576 18.5852 10.8307 18.125 10.8307H8.95833C8.4981 10.8307 8.125 10.4576 8.125 9.9974Z" fill="white"/>
<path fill-rule="evenodd" clip-rule="evenodd" d="M13.9585 15.8333C13.9585 15.3731 14.3316 15 14.7918 15H17.2918C17.7521 15 18.1252 15.3731 18.1252 15.8333C18.1252 16.2936 17.7521 16.6667 17.2918 16.6667H14.7918C14.3316 16.6667 13.9585 16.2936 13.9585 15.8333Z" fill="white"/>
<path fill-rule="evenodd" clip-rule="evenodd" d="M11.4583 13.3281C11.9186 13.3281 12.2917 13.7012 12.2917 14.1615V17.4948C12.2917 17.955 11.9186 18.3281 11.4583 18.3281C10.9981 18.3281 10.625 17.955 10.625 17.4948V14.1615C10.625 13.7012 10.9981 13.3281 11.4583 13.3281Z" fill="white"/>
<path fill-rule="evenodd" clip-rule="evenodd" d="M1.4585 15.8333C1.4585 15.3731 1.83159 15 2.29183 15H11.4585C11.9187 15 12.2918 15.3731 12.2918 15.8333C12.2918 16.2936 11.9187 16.6667 11.4585 16.6667H2.29183C1.83159 16.6667 1.4585 16.2936 1.4585 15.8333Z" fill="white"/>
</svg>
