<svg width="29" height="20" viewBox="0 0 29 20" fill="none" xmlns="http://www.w3.org/2000/svg">
<path d="M27.2573 13.8067C27.3734 13.177 27.3734 12.534 27.2573 11.9044L28.4092 11.2391C28.5432 11.1632 28.6012 11.0069 28.5566 10.8596C28.2574 9.89507 27.744 9.01987 27.0743 8.29649C26.9716 8.18486 26.8064 8.15807 26.6725 8.23398L25.5205 8.89931C25.0339 8.48404 24.4758 8.16254 23.8731 7.9482V6.61755C23.8731 6.46573 23.7659 6.33177 23.6186 6.30051C22.6229 6.07725 21.6094 6.08618 20.6629 6.30051C20.5156 6.33177 20.4084 6.46573 20.4084 6.61755V7.9482C19.8057 8.16254 19.2476 8.48404 18.7609 8.89931L17.609 8.23398C17.4795 8.15807 17.3099 8.18486 17.2072 8.29649C16.5375 9.01987 16.024 9.89507 15.7249 10.8596C15.6802 11.0069 15.7427 11.1632 15.8722 11.2391L17.0241 11.9044C16.908 12.534 16.908 13.177 17.0241 13.8067L15.8722 14.472C15.7383 14.5479 15.6802 14.7042 15.7249 14.8515C16.024 15.816 16.5375 16.6868 17.2072 17.4146C17.3099 17.5262 17.4751 17.553 17.609 17.4771L18.7609 16.8118C19.2476 17.2271 19.8057 17.5486 20.4084 17.7629V19.0935C20.4084 19.2454 20.5156 19.3793 20.6629 19.4106C21.6585 19.6338 22.672 19.6249 23.6186 19.4106C23.7659 19.3793 23.8731 19.2454 23.8731 19.0935V17.7629C24.4758 17.5486 25.0339 17.2271 25.5205 16.8118L26.6725 17.4771C26.8019 17.553 26.9716 17.5262 27.0743 17.4146C27.744 16.6912 28.2574 15.816 28.5566 14.8515C28.6012 14.7042 28.5387 14.5479 28.4092 14.472L27.2573 13.8067ZM22.1452 15.0212C20.9486 15.0212 19.9798 14.0478 19.9798 12.8555C19.9798 11.6633 20.9531 10.6899 22.1452 10.6899C23.3373 10.6899 24.3106 11.6633 24.3106 12.8555C24.3106 14.0478 23.3417 15.0212 22.1452 15.0212ZM4.28617 8.56888C5.86223 8.56888 7.14361 7.28734 7.14361 5.7111C7.14361 4.13485 5.86223 2.85332 4.28617 2.85332C2.71011 2.85332 1.42872 4.13485 1.42872 5.7111C1.42872 7.28734 2.71011 8.56888 4.28617 8.56888ZM14.2872 9.99777C14.3721 9.99777 14.4524 9.97544 14.5372 9.97097C14.9078 9.00201 15.4525 8.09109 16.158 7.32753C16.4883 6.97031 16.9571 6.7649 17.4483 6.7649C17.7563 6.7649 18.0599 6.84528 18.3234 7.00156L18.6761 7.20697C18.7118 7.18464 18.7475 7.16678 18.7832 7.14445C19.0958 6.49252 19.2833 5.76915 19.2833 5.00112C19.2833 2.23711 17.0464 0 14.2828 0C11.5191 0 9.28669 2.23264 9.28669 4.99665C9.28669 7.76066 11.5235 9.99777 14.2872 9.99777ZM18.9841 18.6827C18.8815 18.6292 18.7788 18.5666 18.6805 18.5086C18.3144 18.7229 17.9974 18.9462 17.4527 18.9462C16.9661 18.9462 16.4973 18.7408 16.1624 18.3836C15.3454 17.4994 14.7203 16.4233 14.3676 15.2757C13.8899 13.7352 15.4793 13.0565 15.5195 13.0297C15.515 12.9136 15.515 12.7975 15.5195 12.6814L15.1668 12.476C14.9971 12.3778 14.8542 12.2527 14.7292 12.1143C14.5819 12.1232 14.439 12.1411 14.2917 12.1411C13.1934 12.1411 12.1665 11.8732 11.2333 11.4267H10.8628C8.0187 11.4267 5.71489 13.7307 5.71489 16.5707V17.8567C5.71489 19.04 6.67481 20 7.85797 20H19.261C19.0958 19.7321 18.9841 19.4284 18.9841 19.0935V18.6827ZM7.72849 10.8283C7.21058 10.3148 6.50069 9.99777 5.71489 9.99777H2.85744C1.28139 9.99777 0 11.2793 0 12.8555V14.2844C0 15.0748 0.63846 15.7133 1.42872 15.7133H4.371C4.65228 13.5968 5.9292 11.8151 7.72849 10.8283Z" fill="white"/>
</svg>
